<svg width="73" height="76" viewBox="0 0 73 76" fill="none" xmlns="http://www.w3.org/2000/svg">
<g filter="url(#filter0_d_41010_2795)">
<path d="M40.8672 7.68738C40.8672 6.84608 41.5493 6.16406 42.3905 6.16406H50.7688C51.61 6.16406 52.2921 6.84608 52.2921 7.68738V51.9906C52.2921 55.3559 49.5641 58.0839 46.1988 58.0839H42.3905C41.5493 58.0839 40.8672 57.4018 40.8672 56.5606V7.68738Z" fill="#338DEF"/>
<path d="M29.4258 20.4218C29.4258 19.5805 30.1077 18.8984 30.9491 18.8984H40.8507V57.3374C40.8507 60.1417 38.5773 62.4151 35.7729 62.4151H29.4258V20.4218Z" fill="#54A0FF"/>
<path d="M17.9961 32.8827C17.9961 32.0414 18.6781 31.3594 19.5195 31.3594H29.421V61.5643C29.421 64.5088 27.034 66.8959 24.0894 66.8959H17.9961V32.8827Z" fill="#8AC2FF"/>
<path d="M6.57422 45.3671C6.57422 44.5258 7.25623 43.8438 8.09754 43.8438H17.9991V67.1337C17.9991 67.975 17.3171 68.657 16.4758 68.657H6.57422V45.3671Z" fill="#ACD6FC"/>
<path fill-rule="evenodd" clip-rule="evenodd" d="M68.9971 36.9916C69.0328 36.6153 68.7339 36.2915 68.3561 36.2969L55.0371 36.4888C54.4882 36.4966 54.2075 37.1506 54.5798 37.5539L58.0519 41.3164C57.7719 41.6141 51.1688 48.6178 46.2768 52.405C41.0357 56.4624 37.8124 58.4397 31.8739 61.3835C27.215 63.693 24.4824 64.7913 19.5285 66.3715C16.383 67.3749 14.5861 67.849 11.3606 68.5538C8.82225 69.1085 4.81375 69.7385 4.81375 69.7385C4.81375 69.7385 3.94082 69.8631 4.00319 70.4867C4.06556 71.1102 4.81375 71.0479 4.81375 71.0479L11.6723 70.4867C11.6723 70.4867 16.9842 69.813 20.339 69.115C25.5226 68.0365 28.4017 67.2029 33.3703 65.374C40.0746 62.9062 43.7321 61.1136 49.8308 57.3931C55.3494 54.0265 63.0625 47.6335 63.5261 47.2482L66.6404 50.6229C67.0128 51.0264 67.6871 50.7989 67.7389 50.2524L68.9971 36.9916Z" fill="#FFAC06"/>
<path d="M52.2559 8.9954C52.0143 7.5358 50.8725 6.39088 49.4297 6.169C50.8725 5.94712 52.0143 4.80258 52.2559 3.34375C52.4971 4.80258 53.6389 5.94712 55.0813 6.169C53.6389 6.39088 52.4971 7.5358 52.2559 8.9954Z" fill="#FED201"/>
<path d="M12.8952 31.6407C12.7054 30.5112 11.807 29.6249 10.6719 29.4532C11.807 29.2817 12.7054 28.3955 12.8952 27.2656C13.0851 28.3955 13.9834 29.2817 15.1183 29.4532C13.9834 29.6249 13.0851 30.5112 12.8952 31.6407Z" fill="#FED201"/>
</g>
<defs>
<filter id="filter0_d_41010_2795" x="0.338028" y="0.597271" width="72.3239" height="75.0271" filterUnits="userSpaceOnUse" color-interpolation-filters="sRGB">
<feFlood flood-opacity="0" result="BackgroundImageFix"/>
<feColorMatrix in="SourceAlpha" type="matrix" values="0 0 0 0 0 0 0 0 0 0 0 0 0 0 0 0 0 0 127 0" result="hardAlpha"/>
<feOffset dy="0.915493"/>
<feGaussianBlur stdDeviation="1.83099"/>
<feComposite in2="hardAlpha" operator="out"/>
<feColorMatrix type="matrix" values="0 0 0 0 0 0 0 0 0 0 0 0 0 0 0 0 0 0 0.25 0"/>
<feBlend mode="normal" in2="BackgroundImageFix" result="effect1_dropShadow_41010_2795"/>
<feBlend mode="normal" in="SourceGraphic" in2="effect1_dropShadow_41010_2795" result="shape"/>
</filter>
</defs>
</svg>
