<svg width="32" height="32" viewBox="0 0 32 32" fill="none" xmlns="http://www.w3.org/2000/svg">
<path d="M24.5 31.125C28.297 31.125 31.375 28.047 31.375 24.25C31.375 20.453 28.297 17.375 24.5 17.375C20.703 17.375 17.625 20.453 17.625 24.25C17.625 28.047 20.703 31.125 24.5 31.125Z" fill="url(#paint0_linear_7214_8181)"/>
<path d="M24.7843 21.8114C25.0709 21.8188 25.352 21.8918 25.6057 22.0251C25.8594 22.1583 26.0788 22.3481 26.247 22.5796C26.3366 22.6968 26.4693 22.7738 26.6159 22.7936C26.7624 22.8134 26.9108 22.7745 27.0286 22.6853C27.0872 22.6406 27.1363 22.5848 27.1731 22.521C27.2099 22.4572 27.2337 22.3868 27.2431 22.3138C27.2524 22.2408 27.2471 22.1668 27.2276 22.0958C27.208 22.0248 27.1746 21.9584 27.1291 21.9005C26.8575 21.5336 26.5046 21.2343 26.0978 21.0257C25.6911 20.8171 25.2416 20.7051 24.7843 20.6982C24.1449 20.7168 23.5269 20.9314 23.0144 21.3129C22.5019 21.6944 22.1198 22.2242 21.9203 22.8301H21.1052C20.9571 22.8301 20.8151 22.8887 20.7104 22.9931C20.6057 23.0975 20.5469 23.2391 20.5469 23.3867C20.5469 23.5343 20.6057 23.6759 20.7104 23.7803C20.8151 23.8847 20.9571 23.9433 21.1052 23.9433H21.6634V24.2216V24.4999H21.1052C20.9571 24.4999 20.8151 24.5586 20.7104 24.663C20.6057 24.7674 20.5469 24.9089 20.5469 25.0566C20.5469 25.2042 20.6057 25.3458 20.7104 25.4501C20.8151 25.5546 20.9571 25.6132 21.1052 25.6132H21.9203C22.1198 26.2191 22.5019 26.7489 23.0144 27.1304C23.5269 27.5119 24.1449 27.7265 24.7843 27.7451C25.2416 27.7382 25.6911 27.6261 26.0978 27.4176C26.5046 27.209 26.8575 26.9096 27.1291 26.5428C27.1891 26.4871 27.2362 26.4189 27.2668 26.3431C27.2975 26.2673 27.311 26.1857 27.3064 26.1041C27.3019 26.0224 27.2793 25.9428 27.2404 25.8708C27.2015 25.7989 27.1471 25.7364 27.0813 25.6877C27.0154 25.6391 26.9395 25.6055 26.8591 25.5894C26.7788 25.5733 26.6958 25.5749 26.6161 25.5944C26.5365 25.6139 26.4621 25.6506 26.3983 25.7019C26.3346 25.7533 26.2829 25.818 26.247 25.8915C26.0788 26.1231 25.8594 26.3128 25.6057 26.446C25.352 26.5793 25.0709 26.6524 24.7843 26.6596C24.4436 26.6463 24.1127 26.5421 23.8261 26.3581C23.5394 26.1741 23.3073 25.9169 23.1541 25.6132H24.4549C24.6029 25.6132 24.7449 25.5546 24.8496 25.4501C24.9544 25.3458 25.0132 25.2042 25.0132 25.0566C25.0132 24.9089 24.9544 24.7674 24.8496 24.663C24.7449 24.5586 24.6029 24.4999 24.4549 24.4999H22.8079C22.7931 24.4078 22.7838 24.3149 22.78 24.2216C22.7838 24.1284 22.7931 24.0354 22.8079 23.9433H24.4549C24.6029 23.9433 24.7449 23.8847 24.8496 23.7803C24.9544 23.6759 25.0132 23.5343 25.0132 23.3867C25.0132 23.2391 24.9544 23.0975 24.8496 22.9931C24.7449 22.8887 24.6029 22.8301 24.4549 22.8301H23.1541C23.3111 22.5316 23.5447 22.2801 23.8311 22.1011C24.1175 21.9221 24.4464 21.8222 24.7843 21.8114Z" fill="white"/>
<path d="M7.5 31.125C11.297 31.125 14.375 28.047 14.375 24.25C14.375 20.453 11.297 17.375 7.5 17.375C3.70304 17.375 0.625 20.453 0.625 24.25C0.625 28.047 3.70304 31.125 7.5 31.125Z" fill="url(#paint1_linear_7214_8181)"/>
<path d="M10.1007 26.0833C9.93787 26.9898 9.17337 27.5662 8.08699 27.6939V28.3067C8.08699 28.629 7.82581 28.8904 7.50249 28.8904C7.17912 28.8904 6.91649 28.6296 6.91649 28.3067V27.6691C6.90837 27.6679 6.90118 27.6685 6.89306 27.6672C6.41406 27.5986 5.91111 27.4265 5.4676 27.2746L5.26586 27.2059C4.96009 27.1029 4.79548 26.7709 4.899 26.4664C5.00252 26.1617 5.33575 25.9971 5.64082 26.1001L5.84766 26.1705C6.24252 26.3056 6.68949 26.4589 7.06224 26.5121C7.92349 26.6389 8.83743 26.4967 8.94787 25.8903C9.04274 25.3696 8.74374 25.1627 7.34699 24.7832L7.07193 24.7081C6.26887 24.4837 4.59832 24.0186 4.90412 22.3424C5.06598 21.4505 5.82718 20.8738 6.91649 20.7467V20.1355C6.91649 19.8132 7.17856 19.5518 7.50212 19.5518C7.82562 19.5518 8.08699 19.8132 8.08699 20.1355V20.7729C8.09506 20.7741 8.10237 20.7737 8.11043 20.7749C8.41968 20.8211 8.77287 20.9112 9.22093 21.0586C9.52843 21.1595 9.69537 21.4892 9.59424 21.7956C9.49312 22.1015 9.16099 22.2673 8.85518 22.1674C8.47624 22.0431 8.17624 21.9652 7.93781 21.9299C7.08112 21.8026 6.16608 21.9448 6.05524 22.5522C5.97459 22.9954 6.14212 23.2362 7.38837 23.5827L7.65518 23.6559C8.75093 23.9548 10.408 24.4053 10.1007 26.0833Z" fill="white"/>
<path d="M16 20.8125C21.5228 20.8125 26 16.3353 26 10.8125C26 5.28965 21.5228 0.8125 16 0.8125C10.4772 0.8125 6 5.28965 6 10.8125C6 16.3353 10.4772 20.8125 16 20.8125Z" fill="url(#paint2_linear_7214_8181)"/>
<path d="M19.6986 6.47428H17.8997C18.2249 6.88166 18.4308 7.3796 18.5171 7.9681H20.0492L19.6986 9.16016H18.54C18.4486 10.0554 18.0903 10.7293 17.4652 11.182C16.8402 11.6347 15.9712 11.861 14.8584 11.861L18.6162 16.1765V16.2671H16.886L12.8461 11.6121L12.8384 10.669H14.7364C15.3716 10.664 15.8874 10.5282 16.2838 10.2616C16.6801 9.99003 16.9317 9.62285 17.0384 9.16016H12.625L12.9756 7.9681H17.0232C16.7792 7.01247 16.0322 6.51453 14.7822 6.47428H12.6402L12.9985 5.28223H20.0492L19.6986 6.47428Z" fill="white"/>
<defs>
<linearGradient id="paint0_linear_7214_8181" x1="24.5" y1="17.375" x2="24.5" y2="31.125" gradientUnits="userSpaceOnUse">
<stop stop-color="#6AACFF"/>
<stop offset="1" stop-color="#338DEF"/>
</linearGradient>
<linearGradient id="paint1_linear_7214_8181" x1="2.91667" y1="19.1979" x2="12.2396" y2="28.8594" gradientUnits="userSpaceOnUse">
<stop stop-color="#FFCA51"/>
<stop offset="1" stop-color="#FFAB01"/>
</linearGradient>
<linearGradient id="paint2_linear_7214_8181" x1="9.33331" y1="3.46401" x2="22.8939" y2="17.5171" gradientUnits="userSpaceOnUse">
<stop stop-color="#86D047"/>
<stop offset="1" stop-color="#67B129"/>
</linearGradient>
</defs>
</svg>
