<svg width="75" height="75" viewBox="0 0 75 75" fill="none" xmlns="http://www.w3.org/2000/svg">
<g clip-path="url(#clip0_41551_957)">
<path d="M25.7501 45.6566H49.2879C50.3602 45.6542 51.3746 45.1721 52.0538 44.3431C52.7332 43.5137 53.0063 42.4241 52.7982 41.3727L49.9332 26.9455V26.945C49.7825 26.1322 49.3507 25.3977 48.7142 24.8694C48.0776 24.3411 47.2763 24.0531 46.4492 24.0547H28.5891C27.762 24.0531 26.9604 24.3411 26.3241 24.8694C25.6876 25.3977 25.2561 26.1322 25.1051 26.945L22.2401 41.3722V41.3727C22.0321 42.4241 22.3053 43.5137 22.9844 44.3431C23.6637 45.1721 24.6781 45.6542 25.7501 45.6566Z" fill="url(#paint0_linear_41551_957)"/>
<path d="M66.1316 50.6723C65.9809 49.8588 65.5499 49.1242 64.9134 48.596C64.2761 48.0677 63.4748 47.7796 62.6477 47.7813H44.8129C43.9827 47.7787 43.1777 48.066 42.5367 48.5938C41.8961 49.1214 41.4592 49.8564 41.3031 50.6723L38.4384 65.0995C38.2389 66.1469 38.5155 67.2292 39.194 68.0521C39.872 68.8753 40.8813 69.3541 41.9484 69.3578H65.4864H65.4857C66.5554 69.3632 67.5712 68.8872 68.2516 68.0617C68.932 67.2363 69.205 66.1485 68.9957 65.0995L66.1316 50.6723Z" fill="url(#paint1_linear_41551_957)"/>
<path d="M33.7154 50.6721C33.5593 49.8564 33.1227 49.1214 32.4821 48.5936C31.8409 48.0658 31.036 47.7785 30.2059 47.7813H12.3711C11.5438 47.7796 10.7424 48.0677 10.1053 48.596C9.46873 49.1242 9.03781 49.8588 8.88688 50.6721L6.02192 65.0992C5.81281 66.1483 6.08588 67.236 6.76625 68.0615C7.44662 68.8872 8.46226 69.363 9.53211 69.3578H33.0699H33.0695C34.1364 69.3539 35.1456 68.875 35.8236 68.0519C36.5024 67.2292 36.7789 66.1467 36.5795 65.0992L33.7154 50.6721Z" fill="url(#paint2_linear_41551_957)"/>
<path d="M37.5175 17.4607C38.5155 17.4607 39.3243 16.6518 39.3243 15.654V7.36913C39.3243 6.37135 38.5155 5.5625 37.5175 5.5625C36.5198 5.5625 35.7109 6.37135 35.7109 7.36913V15.654C35.7109 16.1333 35.901 16.5925 36.2404 16.9311C36.5793 17.2706 37.0382 17.4607 37.5175 17.4607Z" fill="#FF9700"/>
<path d="M73.216 37.4531H64.9318C63.9341 37.4531 63.125 38.2617 63.125 39.2597C63.125 40.2574 63.9341 41.0663 64.9318 41.0663H73.2167H73.216C74.2137 41.0663 75.0226 40.2574 75.0226 39.2597C75.0226 38.2617 74.2137 37.4531 73.216 37.4531Z" fill="#FF9700"/>
<path d="M11.8975 39.2441C11.8975 38.2463 11.0887 37.4375 10.0909 37.4375H1.80663C0.808842 37.4375 0 38.2463 0 39.2441C0 40.242 0.808842 41.0509 1.80663 41.0509H10.0909C11.0887 41.0509 11.8975 40.242 11.8975 39.2441Z" fill="#FF9700"/>
<path d="M56.8777 25.482C57.356 25.4839 57.8138 25.288 58.1424 24.9399L64.0013 19.0811C64.3545 18.7453 64.5549 18.2786 64.5549 17.7907C64.5549 17.3033 64.3545 16.8366 64.0013 16.5002C63.2869 15.7916 62.1347 15.7916 61.4203 16.5002L55.5614 22.385C55.0596 22.9109 54.9162 23.6834 55.1956 24.3545C55.4749 25.0257 56.1248 25.4677 56.8516 25.482H56.8777Z" fill="#FF9700"/>
<path d="M16.8443 24.9531C17.1726 25.3009 17.6306 25.4969 18.1087 25.4952C18.8357 25.4807 19.4857 25.0389 19.765 24.3679C20.0444 23.6966 19.901 22.924 19.3991 22.3982L13.5408 16.5392C12.8264 15.8307 11.6743 15.8307 10.9599 16.5392C10.6061 16.8757 10.4062 17.3418 10.4062 17.8298C10.4062 18.3177 10.6061 18.7842 10.9599 19.1201L16.8443 24.9531Z" fill="#FF9700"/>
</g>
<defs>
<linearGradient id="paint0_linear_41551_957" x1="27.3626" y1="24.0193" x2="50.899" y2="45.7006" gradientUnits="userSpaceOnUse">
<stop stop-color="#FFC200"/>
<stop offset="1" stop-color="#FF9700"/>
</linearGradient>
<linearGradient id="paint1_linear_41551_957" x1="43.5649" y1="47.7461" x2="67.0757" y2="69.4258" gradientUnits="userSpaceOnUse">
<stop stop-color="#FFC200"/>
<stop offset="1" stop-color="#FF9700"/>
</linearGradient>
<linearGradient id="paint2_linear_41551_957" x1="11.143" y1="47.7461" x2="34.6539" y2="69.4258" gradientUnits="userSpaceOnUse">
<stop stop-color="#FFC200"/>
<stop offset="1" stop-color="#FF9700"/>
</linearGradient>
<clipPath id="clip0_41551_957">
<rect width="75" height="75" fill="white"/>
</clipPath>
</defs>
</svg>
