<svg width="32" height="32" viewBox="0 0 32 32" fill="none" xmlns="http://www.w3.org/2000/svg">
<g clip-path="url(#clip0_7214_8190)">
<path d="M31.375 30.75H0.625C0.279822 30.75 0 31.0298 0 31.375C0 31.7202 0.279822 32 0.625 32H31.375C31.7202 32 32 31.7202 32 31.375C32 31.0298 31.7202 30.75 31.375 30.75Z" fill="#D7E5F5"/>
<path fill-rule="evenodd" clip-rule="evenodd" d="M31.4835 12.6454C31.8001 12.9123 31.8404 13.3855 31.5735 13.7022L23.992 22.6949L17.4341 19.7906L13.6714 24.3307L6.15285 21.4438L1.64184 24.878C1.31226 25.1289 0.841693 25.0651 0.59079 24.7356C0.339886 24.406 0.403663 23.9354 0.73324 23.6845L5.90973 19.7437L13.2037 22.5443L17.0035 17.9594L23.5705 20.8677L30.4266 12.7353C30.6936 12.4187 31.1668 12.3784 31.4835 12.6454Z" fill="url(#paint0_linear_7214_8190)"/>
<path d="M2.8125 13.5156C3.75875 14.2832 4.87551 14.8123 6.06884 15.0584C7.26216 15.3045 8.49713 15.2603 9.66986 14.9296C10.8425 14.5989 11.9186 13.9914 12.8076 13.1582C13.6966 12.325 14.3725 11.2904 14.7783 10.1416C15.1841 8.9927 15.3081 7.76314 15.1397 6.55643C14.9714 5.34969 14.5157 4.20103 13.8109 3.20713C13.1061 2.21321 12.1729 1.40312 11.0898 0.845015C10.0067 0.286908 8.80547 -0.00288449 7.58704 2.16437e-05L7.60518 7.60757L2.8125 13.5156Z" fill="#7CDA0F"/>
<path d="M7.60757 0C6.60854 1e-08 5.61927 0.196776 4.69628 0.579092C3.77329 0.961411 2.93464 1.52178 2.2282 2.2282C1.52178 2.93464 0.961411 3.77329 0.579092 4.69628C0.196775 5.61927 -1.7e-07 6.60854 0 7.60757H7.60757V0Z" fill="#2196F3"/>
<path d="M0 7.60791C0 9.02897 0.398042 10.4217 1.14902 11.6281C1.9 12.8346 2.97389 13.8066 4.24899 14.434L7.60757 7.60791H0Z" fill="#FFC107"/>
</g>
<defs>
<linearGradient id="paint0_linear_7214_8190" x1="30.4063" y1="13.25" x2="1.18754" y2="24.3125" gradientUnits="userSpaceOnUse">
<stop stop-color="#358EF0"/>
<stop offset="1" stop-color="#6AADFF"/>
</linearGradient>
<clipPath id="clip0_7214_8190">
<rect width="32" height="32" fill="white"/>
</clipPath>
</defs>
</svg>
