<svg width="32" height="32" viewBox="0 0 32 32" fill="none" xmlns="http://www.w3.org/2000/svg">
<path d="M15.625 0H2.5C1.11929 0 0 1.11929 0 2.5V15.625C0 17.0057 1.11929 18.125 2.5 18.125H15.625C17.0057 18.125 18.125 17.0057 18.125 15.625V2.5C18.125 1.11929 17.0057 0 15.625 0Z" fill="url(#paint0_linear_7214_8161)"/>
<path d="M6.57587 12.5139C8.61087 12.5139 9.48037 11.1264 9.69312 10.2199L8.29637 9.82222C8.16687 10.2939 7.71362 11.0524 6.57587 11.0524C5.59537 11.0524 4.68887 10.3402 4.68887 9.10997C4.68887 7.73172 5.67862 7.10272 6.55737 7.10272C7.71362 7.10272 8.12987 7.87047 8.23162 8.32372L9.60987 7.88897C9.39712 6.94547 8.52762 5.67822 6.55737 5.67822C4.72587 5.67822 3.17188 7.06572 3.17188 9.10997C3.17188 11.1542 4.68887 12.5139 6.57587 12.5139ZM14.7866 12.3752V10.9877H12.0856V9.72972H14.5276V8.44397H12.0856V7.19522H14.7773V5.81697H10.6241V12.3752H14.7866Z" fill="white"/>
<path d="M29.5 13.875H16.375C14.9943 13.875 13.875 14.9943 13.875 16.375V29.5C13.875 30.8807 14.9943 32 16.375 32H29.5C30.8807 32 32 30.8807 32 29.5V16.375C32 14.9943 30.8807 13.875 29.5 13.875Z" fill="url(#paint1_linear_7214_8161)"/>
<path d="M19.588 22.6334V20.9591H20.439C20.994 20.9591 21.3732 21.2736 21.3732 21.8009C21.3732 22.3096 20.994 22.6334 20.439 22.6334H19.588ZM20.587 23.8914C21.919 23.8914 22.8347 23.0311 22.8347 21.7916C22.8347 20.5706 21.919 19.6919 20.587 19.6919H18.1172V26.2501H19.5787V23.8914H20.587ZM27.9526 26.2501V24.8626H25.2516V23.6046H27.6936V22.3189H25.2516V21.0701H27.9434V19.6919H23.7901V26.2501H27.9526Z" fill="white"/>
<defs>
<linearGradient id="paint0_linear_7214_8161" x1="9.0625" y1="0" x2="9.0625" y2="18.125" gradientUnits="userSpaceOnUse">
<stop stop-color="#FFC149"/>
<stop offset="1" stop-color="#EEA20E"/>
</linearGradient>
<linearGradient id="paint1_linear_7214_8161" x1="22.9375" y1="13.875" x2="22.9375" y2="32" gradientUnits="userSpaceOnUse">
<stop stop-color="#8D7DF0"/>
<stop offset="1" stop-color="#6A56E3"/>
</linearGradient>
</defs>
</svg>
