<svg width="32" height="32" viewBox="0 0 32 32" fill="none" xmlns="http://www.w3.org/2000/svg">
<path d="M26.1875 1.25H5.74999C4.92157 1.25 4.25 1.92157 4.25 2.74999V29.2499C4.25 30.0784 4.92157 30.75 5.74999 30.75H26.1875C27.0159 30.75 27.6875 30.0784 27.6875 29.2499V2.74999C27.6875 1.92157 27.0159 1.25 26.1875 1.25Z" fill="#FAF1FF"/>
<path d="M11.5292 12.7583H11.4937C11.3764 12.7583 11.2812 12.8423 11.2812 12.9459V27.8749C11.2812 27.9784 11.3764 28.0624 11.4937 28.0624H11.5292C11.6466 28.0624 11.7417 27.9784 11.7417 27.8749V12.9459C11.7417 12.8423 11.6466 12.7583 11.5292 12.7583Z" fill="#939393"/>
<path d="M18.5527 9.55371H18.5172C18.3998 9.55371 18.3047 9.65284 18.3047 9.77512V27.4042C18.3047 27.5266 18.3998 27.6257 18.5172 27.6257H18.5527C18.6701 27.6257 18.7652 27.5266 18.7652 27.4042V9.77512C18.7652 9.65284 18.6701 9.55371 18.5527 9.55371Z" fill="#939393"/>
<path d="M12.908 17.1514H10.1097C9.48392 17.1514 8.97656 17.5132 8.97656 17.9594V25.2068C8.97656 25.6529 9.48392 26.0147 10.1097 26.0147H12.908C13.5339 26.0147 14.0413 25.6529 14.0413 25.2068V17.9594C14.0413 17.5132 13.5339 17.1514 12.908 17.1514Z" fill="#FF7171"/>
<path d="M19.9315 12H17.1332C16.5074 12 16 12.5305 16 13.185V23.815C16 24.4695 16.5074 25.0001 17.1332 25.0001H19.9315C20.5574 25.0001 21.0647 24.4695 21.0647 23.815V13.185C21.0647 12.5305 20.5574 12 19.9315 12Z" fill="#6CB62E"/>
<path d="M24.0938 14.8202V8.57782L28.9349 8.41113V14.8202C28.9349 14.8202 28.7942 14.933 28.6928 14.9869C27.8768 15.4203 26.8622 13.4868 26.8622 13.4868C26.8622 13.4868 26.7866 13.2748 26.5294 13.2748C26.2723 13.2748 26.1512 13.4868 26.1512 13.4868C26.1512 13.4868 25.1217 15.4476 24.3206 14.9869C24.2254 14.9321 24.0938 14.8202 24.0938 14.8202Z" fill="#EB6666"/>
<path d="M26.5 11C29.5376 11 31.9999 8.53756 31.9999 5.49999C31.9999 2.46243 29.5376 0 26.5 0C23.4624 0 21 2.46243 21 5.49999C21 8.53756 23.4624 11 26.5 11Z" fill="#FFAC06"/>
<path d="M28.8753 4.80377L26.1095 7.86254C26.0264 7.95414 25.9177 8.00049 25.8086 8.00049C25.6995 8.00049 25.5908 7.95414 25.5078 7.86254L24.125 6.33321C23.9583 6.14921 23.9583 5.85164 24.125 5.66774C24.2913 5.48376 24.5601 5.48376 24.7264 5.66774L25.8086 6.8643L28.2739 4.13871C28.4402 3.95441 28.709 3.95441 28.8753 4.13871C29.0416 4.3226 29.0416 4.61987 28.8753 4.80377Z" fill="white"/>
</svg>
