<svg width="200" height="200" viewBox="0 0 200 200" fill="none" xmlns="http://www.w3.org/2000/svg">
<g clip-path="url(#clip0_49480_15442)">
<path d="M0 49.3685V69.7378H19.752H39.504V100.6V131.463H59.2561H79.0081V80.2311V28.9993H39.504H0V49.3685Z" fill="#121212"/>
<path d="M109.159 30.2856C106.937 30.7794 103.234 32.3842 100.888 33.8656C83.6052 44.6058 90.148 72.1352 110.517 74.4807C121.011 75.5918 129.652 70.1599 134.343 59.5432C140.639 44.9761 125.084 26.9524 109.159 30.2856Z" fill="#121212"/>
<path d="M154.571 32.0855C151.238 39.2456 113.585 129.981 113.585 130.722C113.585 131.093 123.461 131.463 135.683 131.463H157.781L160.25 125.537C169.632 103.563 200.001 30.3572 200.001 29.74C200.001 29.3696 190.125 28.9993 178.026 28.9993H155.929L154.571 32.0855Z" fill="#121212"/>
<path d="M14.1774 177.07H11.3029L6.39648 165.002H9.56832L12.7649 173.626L15.8872 165.002H18.9104L14.1774 177.07ZM20.8805 177.07V165.002H23.7302V177.07H20.8805ZM20.4345 160.765C20.4345 160.236 20.6162 159.79 20.9796 159.427C21.3431 159.064 21.7809 158.882 22.293 158.882C22.8216 158.882 23.2677 159.064 23.6311 159.427C23.9945 159.79 24.1763 160.236 24.1763 160.765C24.1763 161.294 23.9945 161.74 23.6311 162.103C23.2677 162.45 22.8216 162.624 22.293 162.624C21.7809 162.624 21.3431 162.45 20.9796 162.103C20.6162 161.74 20.4345 161.294 20.4345 160.765ZM26.2399 173.799C26.2399 173.254 26.3308 172.775 26.5125 172.362C26.7107 171.949 26.9668 171.594 27.2807 171.297C27.6111 170.983 27.9993 170.735 28.4453 170.553C28.8914 170.371 29.3705 170.239 29.8826 170.157L32.9801 169.686C33.327 169.636 33.5583 169.537 33.6739 169.389C33.8061 169.223 33.8722 169.033 33.8722 168.819C33.8722 168.306 33.6904 167.877 33.327 167.53C32.9636 167.167 32.3854 166.985 31.5924 166.985C30.8325 166.985 30.246 167.2 29.833 167.629C29.42 168.042 29.1805 168.554 29.1144 169.165L26.4877 168.571C26.5373 168.059 26.6942 167.563 26.9585 167.084C27.2229 166.605 27.5698 166.184 27.9993 165.82C28.4288 165.457 28.9409 165.168 29.5357 164.953C30.1469 164.738 30.8242 164.631 31.5676 164.631C32.4927 164.631 33.2774 164.755 33.9217 165.002C34.5825 165.25 35.1112 165.581 35.5076 165.994C35.9206 166.407 36.218 166.886 36.3997 167.431C36.598 167.976 36.6971 168.546 36.6971 169.141V175.137C36.6971 175.683 36.7136 176.129 36.7466 176.476C36.7962 176.806 36.8292 177.004 36.8458 177.07H34.1695C34.153 177.037 34.1282 176.897 34.0952 176.649C34.0621 176.385 34.0456 176.013 34.0456 175.534C33.7648 175.997 33.3187 176.434 32.7075 176.847C32.0963 177.244 31.3033 177.442 30.3286 177.442C29.7009 177.442 29.1309 177.343 28.6188 177.145C28.1232 176.946 27.6937 176.682 27.3302 176.352C26.9833 176.005 26.7107 175.617 26.5125 175.187C26.3308 174.741 26.2399 174.278 26.2399 173.799ZM30.8738 175.187C31.2703 175.187 31.6502 175.137 32.0137 175.038C32.3771 174.923 32.691 174.749 32.9553 174.518C33.2361 174.27 33.4592 173.948 33.6244 173.552C33.7896 173.155 33.8722 172.659 33.8722 172.065V171.52L30.7251 171.99C30.2791 172.073 29.8991 172.246 29.5852 172.511C29.2713 172.759 29.1144 173.13 29.1144 173.626C29.1144 174.039 29.2631 174.402 29.5604 174.716C29.8578 175.03 30.2956 175.187 30.8738 175.187ZM52.1616 162.301V177.07H49.188V162.301H43.4886V159.501H57.8858V162.301H52.1616ZM64.4052 167.852C64.0748 167.803 63.7609 167.778 63.4636 167.778C62.3402 167.778 61.5142 168.083 60.9856 168.695C60.4734 169.306 60.2174 170.181 60.2174 171.321V177.07H57.3429V165.002H60.143V166.935C60.4239 166.274 60.8782 165.762 61.5059 165.399C62.1337 165.035 62.8441 164.854 63.637 164.854C63.8187 164.854 63.9757 164.862 64.1078 164.879C64.24 164.895 64.3391 164.912 64.4052 164.928V167.852ZM65.6304 173.799C65.6304 173.254 65.7213 172.775 65.903 172.362C66.1012 171.949 66.3573 171.594 66.6712 171.297C67.0016 170.983 67.3898 170.735 67.8358 170.553C68.2819 170.371 68.7609 170.239 69.2731 170.157L72.3706 169.686C72.7175 169.636 72.9488 169.537 73.0644 169.389C73.1966 169.223 73.2626 169.033 73.2626 168.819C73.2626 168.306 73.0809 167.877 72.7175 167.53C72.354 167.167 71.7758 166.985 70.9829 166.985C70.223 166.985 69.6365 167.2 69.2235 167.629C68.8105 168.042 68.571 168.554 68.5049 169.165L65.8782 168.571C65.9278 168.059 66.0847 167.563 66.349 167.084C66.6133 166.605 66.9603 166.184 67.3898 165.82C67.8193 165.457 68.3314 165.168 68.9261 164.953C69.5374 164.738 70.2147 164.631 70.9581 164.631C71.8832 164.631 72.6679 164.755 73.3122 165.002C73.973 165.25 74.5016 165.581 74.8981 165.994C75.3111 166.407 75.6085 166.886 75.7902 167.431C75.9884 167.976 76.0876 168.546 76.0876 169.141V175.137C76.0876 175.683 76.1041 176.129 76.1371 176.476C76.1867 176.806 76.2197 177.004 76.2362 177.07H73.56C73.5435 177.037 73.5187 176.897 73.4857 176.649C73.4526 176.385 73.4361 176.013 73.4361 175.534C73.1553 175.997 72.7092 176.434 72.098 176.847C71.4867 177.244 70.6938 177.442 69.7191 177.442C69.0913 177.442 68.5214 177.343 68.0093 177.145C67.5137 176.946 67.0842 176.682 66.7207 176.352C66.3738 176.005 66.1012 175.617 65.903 175.187C65.7213 174.741 65.6304 174.278 65.6304 173.799ZM70.2643 175.187C70.6607 175.187 71.0407 175.137 71.4041 175.038C71.7676 174.923 72.0815 174.749 72.3458 174.518C72.6266 174.27 72.8496 173.948 73.0148 173.552C73.18 173.155 73.2626 172.659 73.2626 172.065V171.52L70.1156 171.99C69.6695 172.073 69.2896 172.246 68.9757 172.511C68.6618 172.759 68.5049 173.13 68.5049 173.626C68.5049 174.039 68.6536 174.402 68.9509 174.716C69.2483 175.03 69.6861 175.187 70.2643 175.187ZM81.3587 170.999C81.3587 172.156 81.6478 173.089 82.226 173.799C82.8207 174.493 83.6137 174.84 84.6049 174.84C85.0674 174.84 85.4969 174.749 85.8934 174.568C86.2899 174.369 86.6286 174.105 86.9094 173.775C87.1902 173.428 87.405 173.023 87.5537 172.56C87.7189 172.081 87.8015 171.553 87.8015 170.974C87.8015 169.818 87.5041 168.909 86.9094 168.249C86.3312 167.571 85.5713 167.233 84.6296 167.233C83.688 167.233 82.9033 167.571 82.2755 168.249C81.6643 168.926 81.3587 169.843 81.3587 170.999ZM90.5768 174.865C90.5768 175.41 90.5934 175.889 90.6264 176.302C90.6594 176.715 90.6842 176.971 90.7007 177.07H87.9502C87.9171 176.938 87.8841 176.707 87.851 176.376C87.8345 176.046 87.8263 175.757 87.8263 175.509C87.5454 176.021 87.0994 176.459 86.4881 176.823C85.8769 177.186 85.1418 177.368 84.2827 177.368C83.4072 177.368 82.6142 177.211 81.9038 176.897C81.1935 176.566 80.5822 176.12 80.0701 175.559C79.5745 174.981 79.1863 174.303 78.9055 173.527C78.6246 172.75 78.4842 171.908 78.4842 170.999C78.4842 170.14 78.6246 169.331 78.9055 168.571C79.1863 167.794 79.5745 167.117 80.0701 166.539C80.5822 165.961 81.1935 165.506 81.9038 165.176C82.6142 164.846 83.3906 164.68 84.2332 164.68C84.7618 164.68 85.2244 164.738 85.6208 164.854C86.0173 164.953 86.356 165.093 86.6368 165.275C86.9342 165.44 87.1737 165.622 87.3554 165.82C87.5372 166.018 87.6776 166.217 87.7767 166.415V159.13H90.5768V174.865ZM93.8249 177.07V165.002H96.6746V177.07H93.8249ZM93.3789 160.765C93.3789 160.236 93.5606 159.79 93.924 159.427C94.2875 159.064 94.7252 158.882 95.2374 158.882C95.766 158.882 96.212 159.064 96.5755 159.427C96.9389 159.79 97.1206 160.236 97.1206 160.765C97.1206 161.294 96.9389 161.74 96.5755 162.103C96.212 162.45 95.766 162.624 95.2374 162.624C94.7252 162.624 94.2875 162.45 93.924 162.103C93.5606 161.74 93.3789 161.294 93.3789 160.765ZM102.802 177.07H99.9277V165.002H102.728V166.613C103.124 165.919 103.645 165.424 104.289 165.126C104.95 164.812 105.619 164.656 106.296 164.656C107.04 164.656 107.684 164.779 108.229 165.027C108.774 165.275 109.22 165.622 109.567 166.068C109.931 166.498 110.203 167.001 110.385 167.58C110.567 168.158 110.657 168.777 110.657 169.438V177.07H107.783V169.934C107.783 169.19 107.593 168.563 107.213 168.05C106.85 167.522 106.214 167.257 105.305 167.257C104.479 167.257 103.851 167.538 103.422 168.1C103.009 168.645 102.802 169.314 102.802 170.107V177.07ZM115.682 177.046C115.781 177.789 116.095 178.408 116.623 178.904C117.169 179.4 117.862 179.647 118.705 179.647C120.985 179.647 122.125 178.441 122.125 176.03V174.766C121.86 175.245 121.431 175.658 120.836 176.005C120.258 176.352 119.523 176.525 118.631 176.525C117.821 176.525 117.078 176.376 116.4 176.079C115.723 175.782 115.137 175.377 114.641 174.865C114.145 174.336 113.757 173.717 113.476 173.006C113.195 172.28 113.055 171.495 113.055 170.652C113.055 169.843 113.187 169.083 113.452 168.373C113.732 167.662 114.112 167.043 114.591 166.514C115.087 165.985 115.673 165.564 116.351 165.25C117.045 164.936 117.805 164.779 118.631 164.779C119.572 164.779 120.332 164.953 120.91 165.3C121.505 165.63 121.935 166.043 122.199 166.539V165.002H124.974V175.93C124.974 176.74 124.859 177.516 124.627 178.26C124.413 179.003 124.057 179.664 123.562 180.242C123.083 180.82 122.447 181.283 121.654 181.63C120.877 181.977 119.919 182.15 118.779 182.15C117.986 182.15 117.251 182.035 116.574 181.803C115.913 181.572 115.327 181.258 114.814 180.862C114.319 180.465 113.914 179.994 113.6 179.449C113.303 178.921 113.113 178.351 113.03 177.739L115.682 177.046ZM119.101 174.072C120.026 174.072 120.77 173.766 121.332 173.155C121.91 172.527 122.199 171.693 122.199 170.652C122.199 170.14 122.116 169.678 121.951 169.265C121.802 168.835 121.588 168.472 121.307 168.174C121.042 167.877 120.72 167.654 120.34 167.505C119.96 167.34 119.547 167.257 119.101 167.257C118.176 167.257 117.416 167.563 116.822 168.174C116.243 168.786 115.954 169.612 115.954 170.652C115.954 171.71 116.243 172.544 116.822 173.155C117.4 173.766 118.16 174.072 119.101 174.072ZM140.41 167.58C141.351 167.58 142.086 167.34 142.615 166.861C143.16 166.382 143.433 165.721 143.433 164.879C143.433 164.036 143.16 163.367 142.615 162.871C142.086 162.376 141.351 162.128 140.41 162.128H137.312V167.58H140.41ZM137.312 170.206V177.07H134.338V159.501H140.856C141.698 159.501 142.458 159.642 143.135 159.923C143.829 160.187 144.424 160.559 144.919 161.038C145.415 161.5 145.795 162.062 146.059 162.723C146.324 163.383 146.456 164.094 146.456 164.854C146.456 165.63 146.324 166.349 146.059 167.01C145.795 167.654 145.415 168.216 144.919 168.695C144.424 169.174 143.829 169.545 143.135 169.81C142.458 170.074 141.698 170.206 140.856 170.206H137.312ZM147.432 173.799C147.432 173.254 147.523 172.775 147.704 172.362C147.903 171.949 148.159 171.594 148.472 171.297C148.803 170.983 149.191 170.735 149.637 170.553C150.083 170.371 150.562 170.239 151.074 170.157L154.172 169.686C154.519 169.636 154.75 169.537 154.866 169.389C154.998 169.223 155.064 169.033 155.064 168.819C155.064 168.306 154.882 167.877 154.519 167.53C154.155 167.167 153.577 166.985 152.784 166.985C152.024 166.985 151.438 167.2 151.025 167.629C150.612 168.042 150.372 168.554 150.306 169.165L147.679 168.571C147.729 168.059 147.886 167.563 148.15 167.084C148.415 166.605 148.762 166.184 149.191 165.82C149.621 165.457 150.133 165.168 150.727 164.953C151.339 164.738 152.016 164.631 152.759 164.631C153.685 164.631 154.469 164.755 155.113 165.002C155.774 165.25 156.303 165.581 156.699 165.994C157.112 166.407 157.41 166.886 157.591 167.431C157.79 167.976 157.889 168.546 157.889 169.141V175.137C157.889 175.683 157.905 176.129 157.938 176.476C157.988 176.806 158.021 177.004 158.038 177.07H155.361C155.345 177.037 155.32 176.897 155.287 176.649C155.254 176.385 155.237 176.013 155.237 175.534C154.957 175.997 154.511 176.434 153.899 176.847C153.288 177.244 152.495 177.442 151.52 177.442C150.893 177.442 150.323 177.343 149.811 177.145C149.315 176.946 148.885 176.682 148.522 176.352C148.175 176.005 147.903 175.617 147.704 175.187C147.523 174.741 147.432 174.278 147.432 173.799ZM152.066 175.187C152.462 175.187 152.842 175.137 153.205 175.038C153.569 174.923 153.883 174.749 154.147 174.518C154.428 174.27 154.651 173.948 154.816 173.552C154.981 173.155 155.064 172.659 155.064 172.065V171.52L151.917 171.99C151.471 172.073 151.091 172.246 150.777 172.511C150.463 172.759 150.306 173.13 150.306 173.626C150.306 174.039 150.455 174.402 150.752 174.716C151.05 175.03 151.487 175.187 152.066 175.187ZM163.928 177.07H161.054V165.002H163.854V166.613C164.25 165.919 164.771 165.424 165.415 165.126C166.076 164.812 166.745 164.656 167.422 164.656C168.166 164.656 168.81 164.779 169.355 165.027C169.9 165.275 170.346 165.622 170.693 166.068C171.057 166.498 171.329 167.001 171.511 167.58C171.693 168.158 171.783 168.777 171.783 169.438V177.07H168.909V169.934C168.909 169.19 168.719 168.563 168.339 168.05C167.976 167.522 167.34 167.257 166.431 167.257C165.605 167.257 164.977 167.538 164.548 168.1C164.135 168.645 163.928 169.314 163.928 170.107V177.07ZM183.027 169.711C183.011 169.364 182.937 169.033 182.804 168.719C182.689 168.389 182.507 168.1 182.259 167.852C182.011 167.604 181.706 167.406 181.342 167.257C180.979 167.109 180.549 167.034 180.054 167.034C179.608 167.034 179.203 167.117 178.84 167.282C178.493 167.431 178.195 167.637 177.948 167.902C177.7 168.15 177.502 168.439 177.353 168.769C177.204 169.083 177.122 169.397 177.105 169.711H183.027ZM185.778 173.626C185.613 174.155 185.373 174.65 185.059 175.113C184.746 175.575 184.357 175.98 183.895 176.327C183.432 176.674 182.904 176.946 182.309 177.145C181.714 177.343 181.053 177.442 180.326 177.442C179.5 177.442 178.716 177.302 177.972 177.021C177.229 176.723 176.576 176.302 176.015 175.757C175.453 175.195 174.999 174.518 174.652 173.725C174.321 172.916 174.156 171.999 174.156 170.974C174.156 170.016 174.313 169.149 174.627 168.373C174.957 167.596 175.395 166.935 175.94 166.39C176.486 165.828 177.113 165.399 177.824 165.102C178.534 164.788 179.269 164.631 180.029 164.631C180.954 164.631 181.78 164.779 182.507 165.077C183.25 165.374 183.87 165.795 184.366 166.341C184.878 166.886 185.266 167.547 185.53 168.323C185.795 169.083 185.927 169.942 185.927 170.9C185.927 171.131 185.918 171.338 185.902 171.52C185.885 171.685 185.869 171.784 185.852 171.817H177.031C177.047 172.28 177.146 172.701 177.328 173.081C177.51 173.461 177.749 173.791 178.047 174.072C178.344 174.353 178.683 174.576 179.063 174.741C179.459 174.89 179.88 174.964 180.326 174.964C181.202 174.964 181.871 174.766 182.334 174.369C182.813 173.956 183.151 173.452 183.35 172.858L185.778 173.626ZM188.408 177.07V159.13H191.282V177.07H188.408Z" fill="#666666"/>
</g>
<defs>
<clipPath id="clip0_49480_15442">
<rect width="200" height="200" fill="white"/>
</clipPath>
</defs>
</svg>
