<?xml version="1.0" standalone="no"?>
<svg xmlns:xlink="http://www.w3.org/1999/xlink" id="wave" style="transform:rotate(180deg); transition: 0.3s" viewBox="0 0 1440 100" version="1.1" xmlns="http://www.w3.org/2000/svg"><defs><linearGradient id="sw-gradient-0" x1="0" x2="0" y1="1" y2="0"><stop stop-color="rgba(12, 12, 12, 1)" offset="0%"/><stop stop-color="rgba(12, 12, 12, 1)" offset="100%"/></linearGradient></defs><path style="transform:translate(0, 0px); opacity:1" fill="url(#sw-gradient-0)" d="M0,70L24,70C48,70,96,70,144,61.7C192,53,240,37,288,35C336,33,384,47,432,46.7C480,47,528,33,576,31.7C624,30,672,40,720,43.3C768,47,816,43,864,45C912,47,960,53,1008,51.7C1056,50,1104,40,1152,31.7C1200,23,1248,17,1296,15C1344,13,1392,17,1440,26.7C1488,37,1536,53,1584,50C1632,47,1680,23,1728,26.7C1776,30,1824,60,1872,75C1920,90,1968,90,2016,80C2064,70,2112,50,2160,41.7C2208,33,2256,37,2304,31.7C2352,27,2400,13,2448,18.3C2496,23,2544,47,2592,50C2640,53,2688,37,2736,40C2784,43,2832,67,2880,73.3C2928,80,2976,70,3024,56.7C3072,43,3120,27,3168,25C3216,23,3264,37,3312,41.7C3360,47,3408,43,3432,41.7L3456,40L3456,100L3432,100C3408,100,3360,100,3312,100C3264,100,3216,100,3168,100C3120,100,3072,100,3024,100C2976,100,2928,100,2880,100C2832,100,2784,100,2736,100C2688,100,2640,100,2592,100C2544,100,2496,100,2448,100C2400,100,2352,100,2304,100C2256,100,2208,100,2160,100C2112,100,2064,100,2016,100C1968,100,1920,100,1872,100C1824,100,1776,100,1728,100C1680,100,1632,100,1584,100C1536,100,1488,100,1440,100C1392,100,1344,100,1296,100C1248,100,1200,100,1152,100C1104,100,1056,100,1008,100C960,100,912,100,864,100C816,100,768,100,720,100C672,100,624,100,576,100C528,100,480,100,432,100C384,100,336,100,288,100C240,100,192,100,144,100C96,100,48,100,24,100L0,100Z"/></svg>