<svg width="40" height="40" viewBox="0 0 40 40" fill="none" xmlns="http://www.w3.org/2000/svg">
<path fill-rule="evenodd" clip-rule="evenodd" d="M5 7C3.89543 7 3 7.89543 3 9V31C3 32.1046 3.89543 33 5 33H35C36.1046 33 37 32.1046 37 31V9C37 7.89543 36.1046 7 35 7H5ZM5.95714 8.5C5.12872 8.5 4.45714 9.17157 4.45714 10V30C4.45714 30.8284 5.12872 31.5 5.95714 31.5H34.0429C34.8713 31.5 35.5429 30.8284 35.5429 30V10C35.5429 9.17157 34.8713 8.5 34.0429 8.5H5.95714Z" fill="#F6F6F6"/>
<path d="M1 30H39V33C39 33.5523 38.5523 34 38 34H2C1.44772 34 1 33.5523 1 33V30Z" fill="#F6F6F6"/>
</svg>
